<?xml version="1.0" ?><!DOCTYPE svg  PUBLIC '-//W3C//DTD SVG 1.1//EN'  'http://www.w3.org/Graphics/SVG/1.1/DTD/svg11.dtd'><svg height="100mm" style="shape-rendering:geometricPrecision; text-rendering:geometricPrecision; image-rendering:optimizeQuality; fill-rule:evenodd; clip-rule:evenodd" viewBox="0 0 100 100" width="100mm" xml:space="preserve" xmlns="http://www.w3.org/2000/svg" xmlns:xlink="http://www.w3.org/1999/xlink"><defs><style type="text/css">
   <![CDATA[
    .fil0 {fill:#008DD2}
   ]]>
  </style></defs><g id="Ebene_x0020_1"><path class="fil0" d="M15.625 12.5l68.7501 0c1.7188,0 3.125,1.4062 3.125,3.125l0 68.75c0,1.7188 -1.4062,3.125 -3.125,3.125l-68.7501 0c-1.7188,0 -3.125,-1.4062 -3.125,-3.125l0 -68.75c0,-1.7188 1.4062,-3.125 3.125,-3.125zm34.4645 59.3746c-0.7855,-0.0053 -1.5633,-0.0434 -2.3317,-0.1132 -1.8885,-0.1924 -3.7056,-0.6252 -5.4208,-1.267 0.7769,-0.1232 1.0427,-0.7484 1.0427,-1.3201 0,-0.6548 0.0138,-2.4832 0,-4.7848 -7.6647,1.6671 -9.2533,-3.629 -9.2533,-3.629 -1.2521,-3.1851 -3.0576,-4.0314 -3.0576,-4.0314 -2.5018,-1.7092 0.1876,-1.6775 0.1876,-1.6775 2.7651,0.1954 4.2228,2.8418 4.2228,2.8418 2.4583,4.2077 6.4486,2.9931 8.0178,2.2899 0.2515,-1.7816 0.965,-2.9966 1.7521,-3.6847 -6.119,-0.6964 -12.5525,-3.06 -12.5525,-13.6202 0,-3.0101 1.0733,-5.4691 2.8359,-7.3942 -0.2844,-0.6969 -1.2317,-3.4995 0.2704,-7.295 0,0 2.3134,-0.7403 7.5768,2.8271 2.1981,-0.6114 4.5569,-0.9161 6.8996,-0.9269 2.3415,0.0108 4.6988,0.3155 6.8994,0.9269 5.2625,-3.5659 7.5744,-2.8271 7.5744,-2.8271 1.5007,3.7955 0.5552,6.5981 0.2725,7.295 1.7629,1.9251 2.8334,4.3841 2.8334,7.3942 0,10.5885 -6.4438,12.917 -12.5849,13.5968 0.9894,0.8531 1.888,2.5067 1.888,5.0774 0,3.4458 0,6.7231 0,7.628 0,0.4862 0.1934,1.0067 0.7268,1.2278 -2.4209,0.9368 -5.0502,1.4552 -7.7994,1.4662zm-34.4589 -56.2496c-0.002,0.0016 -0.004,0.0036 -0.0056,0.0056l0 68.7389c0.0016,0.0019 0.0036,0.0039 0.0056,0.0055l68.739 0c0.0019,-0.0016 0.0039,-0.0036 0.0055,-0.0056l0 -68.7389c-0.0016,-0.0019 -0.0036,-0.0039 -0.0056,-0.0055l-68.7389 0z"/></g></svg>